<svg width="229" height="47" viewBox="0 0 229 47" fill="none" xmlns="http://www.w3.org/2000/svg">
<path fill-rule="evenodd" clip-rule="evenodd" d="M10.6663 3.96046C14.6131 1.37825 19.2533 -2.80142e-07 24 0C28.7468 2.80142e-07 33.3869 1.37825 37.3337 3.96046C41.2805 6.54268 44.3566 10.2129 46.1731 14.5069C47.9896 18.801 48.4649 23.5261 47.5388 28.0846C46.6128 32.6432 44.327 36.8305 40.9706 40.117C36.4697 44.5241 30.3652 47 24 47C17.6348 47 11.5303 44.5241 7.02944 40.117C3.67298 36.8305 1.38721 32.6432 0.461164 28.0846C-0.464881 23.5261 0.010399 18.801 1.8269 14.5069C3.6434 10.2129 6.71954 6.54268 10.6663 3.96046ZM24 2.9375C19.8466 2.9375 15.7865 4.14347 12.333 6.4029C8.8796 8.66234 6.18798 11.8738 4.59854 15.6311C3.0091 19.3884 2.59323 23.5228 3.40352 27.5115C4.11594 31.0185 5.74807 34.2744 8.12803 36.9642L11.933 33.2384C10.2953 31.2928 9.16848 28.9748 8.66311 26.4871C8.05974 23.517 8.36942 20.4383 9.55297 17.6405C10.7365 14.8427 12.7408 12.4513 15.3124 10.7689C17.8839 9.08643 20.9072 8.18842 24 8.18842C27.0928 8.18842 30.1161 9.08643 32.6877 10.7689C35.2592 12.4513 37.2635 14.8427 38.447 17.6405C39.6306 20.4383 39.9403 23.517 39.3369 26.4871C38.8315 28.9748 37.7047 31.2928 36.067 33.2384L39.872 36.9642C42.2519 34.2744 43.8841 31.0185 44.5965 27.5115C45.4068 23.5228 44.9909 19.3884 43.4015 15.6311C41.812 11.8738 39.1204 8.66234 35.667 6.40291C32.2135 4.14347 28.1534 2.9375 24 2.9375ZM37.7507 39.0413L24 25.5771L10.2493 39.0413C14.054 42.2691 18.9326 44.0625 24 44.0625C29.0674 44.0625 33.946 42.2691 37.7507 39.0413ZM14.0665 31.1494L24 21.4229L33.9335 31.1494C35.1589 29.6237 36.0051 27.8312 36.3945 25.9141C36.8821 23.5137 36.6319 21.0257 35.6754 18.7646C34.7189 16.5036 33.0991 14.571 31.0209 13.2113C28.9427 11.8516 26.4994 11.1259 24 11.1259C21.5006 11.1259 19.0573 11.8516 16.9791 13.2113C14.9009 14.571 13.2811 16.5036 12.3246 18.7646C11.3681 21.0257 11.1179 23.5137 11.6055 25.9141C11.9949 27.8312 12.8411 29.6237 14.0665 31.1494Z" fill="white"/>
<path d="M66.7271 32.1465C65.897 32.1465 65.4819 31.9186 65.4819 31.4629V16.6558H60.5381C59.7161 16.6558 59.3052 16.4279 59.3052 15.9722C59.3052 15.5164 59.7161 15.2886 60.5381 15.2886H72.9038C73.7257 15.2886 74.1367 15.5164 74.1367 15.9722C74.1367 16.4279 73.7257 16.6558 72.9038 16.6558H67.96V31.4629C67.96 31.9186 67.549 32.1465 66.7271 32.1465ZM89.4932 32.293C89.1758 32.293 88.8991 32.2319 88.6631 32.1099C87.7354 31.646 87.0355 31.0234 86.5635 30.2422C86.0915 29.4609 85.6683 28.6593 85.2939 27.8374C85.0173 27.2189 84.651 26.5109 84.1953 25.7134C83.7477 24.9077 83.113 24.5049 82.291 24.5049H78.1528V31.6094C78.1528 32.0651 77.7378 32.293 76.9077 32.293C76.0858 32.293 75.6748 32.0651 75.6748 31.6094V16.1187C75.6748 15.6629 76.0858 15.4351 76.9077 15.4351H84.4639C85.7904 15.4351 87.0192 15.8379 88.1504 16.6436C89.2816 17.4492 89.8472 18.556 89.8472 19.9639C89.8472 22.3646 88.48 23.8335 85.7456 24.3706C86.2013 24.7938 86.5757 25.2861 86.8687 25.8477C87.1698 26.401 87.4465 26.9544 87.6987 27.5078C87.9836 28.1507 88.3254 28.8262 88.7241 29.5342C89.1229 30.2422 89.6559 30.763 90.3232 31.0967C90.5918 31.235 90.7261 31.4059 90.7261 31.6094C90.7261 31.7803 90.6203 31.9308 90.4087 32.061C90.1727 32.2157 89.8675 32.293 89.4932 32.293ZM84.4639 23.1377C85.2858 23.1377 85.9735 22.8 86.5269 22.1245C87.0884 21.4491 87.3691 20.7288 87.3691 19.9639C87.3691 19.1908 87.0884 18.4705 86.5269 17.8032C85.9735 17.1359 85.2858 16.8022 84.4639 16.8022H78.1528V23.1377H84.4639ZM106.986 32.293C106.245 32.293 105.798 32.118 105.643 31.7681L103.409 26.7021H95.8042L93.5581 31.9146C93.4523 32.1668 93.1471 32.293 92.6426 32.293C91.9834 32.293 91.6538 32.1302 91.6538 31.8047C91.6538 31.7803 91.6619 31.7437 91.6782 31.6948L98.6118 15.6426C98.7502 15.3089 99.214 15.1421 100.003 15.1421C100.695 15.1421 101.118 15.313 101.273 15.6548L108.255 31.4751C108.28 31.5321 108.292 31.585 108.292 31.6338C108.292 32.0732 107.857 32.293 106.986 32.293ZM102.799 25.335L99.564 17.9985L96.4023 25.335H102.799ZM114.994 32.293C114.31 32.293 113.895 32.1221 113.749 31.7803L106.986 15.9233C106.961 15.8582 106.949 15.8094 106.949 15.7769C106.949 15.3537 107.393 15.1421 108.28 15.1421C108.963 15.1421 109.374 15.313 109.513 15.6548L115.348 29.3389L121.244 15.5327C121.349 15.2723 121.659 15.1421 122.171 15.1421C122.831 15.1421 123.16 15.3008 123.16 15.6182C123.16 15.6426 123.152 15.6792 123.136 15.728L116.288 31.7559C116.133 32.1139 115.702 32.293 114.994 32.293ZM136.966 32H126.004C125.117 32 124.674 31.7559 124.674 31.2676V16.1675C124.674 15.6792 125.117 15.4351 126.004 15.4351H136.966C137.796 15.4351 138.211 15.6629 138.211 16.1187C138.211 16.5744 137.796 16.8022 136.966 16.8022H127.152V23.0278H135.416C136.238 23.0278 136.649 23.2557 136.649 23.7114C136.649 24.1672 136.238 24.395 135.416 24.395H127.152V30.6328H136.966C137.796 30.6328 138.211 30.8607 138.211 31.3164C138.211 31.7721 137.796 32 136.966 32ZM150.992 32H141.593C140.763 32 140.348 31.7721 140.348 31.3164V15.8257C140.348 15.37 140.763 15.1421 141.593 15.1421C142.415 15.1421 142.826 15.37 142.826 15.8257V30.6328H150.992C151.822 30.6328 152.237 30.8607 152.237 31.3164C152.237 31.7721 151.822 32 150.992 32ZM173.111 32.293C172.289 32.293 171.878 32.0651 171.878 31.6094V24.395H162.357V31.6094C162.357 32.0651 161.946 32.293 161.124 32.293C160.294 32.293 159.879 32.0651 159.879 31.6094V15.8257C159.879 15.37 160.294 15.1421 161.124 15.1421C161.946 15.1421 162.357 15.37 162.357 15.8257V23.04H171.878V15.8257C171.878 15.37 172.289 15.1421 173.111 15.1421C173.941 15.1421 174.356 15.37 174.356 15.8257V31.6094C174.356 32.0651 173.941 32.293 173.111 32.293ZM184.647 32.293C182.092 32.293 180.041 31.4832 178.495 29.8638C176.957 28.2362 176.188 26.1854 176.188 23.7114C176.188 21.2293 176.957 19.1826 178.495 17.5713C180.041 15.9518 182.092 15.1421 184.647 15.1421C187.202 15.1421 189.249 15.9518 190.787 17.5713C192.333 19.1826 193.106 21.2293 193.106 23.7114C193.106 26.1854 192.333 28.2362 190.787 29.8638C189.249 31.4832 187.202 32.293 184.647 32.293ZM184.647 30.9258C186.625 30.9258 188.114 30.1608 189.115 28.6309C190.124 27.1009 190.628 25.4611 190.628 23.7114C190.628 21.9618 190.124 20.326 189.115 18.8042C188.114 17.2743 186.625 16.5093 184.647 16.5093C182.669 16.5093 181.176 17.2743 180.167 18.8042C179.166 20.326 178.666 21.9618 178.666 23.7114C178.666 25.4611 179.166 27.1009 180.167 28.6309C181.176 30.1608 182.669 30.9258 184.647 30.9258ZM202.787 32.293C200.231 32.293 198.181 31.4832 196.634 29.8638C195.096 28.2362 194.327 26.1854 194.327 23.7114C194.327 21.2293 195.096 19.1826 196.634 17.5713C198.181 15.9518 200.231 15.1421 202.787 15.1421C205.342 15.1421 207.389 15.9518 208.927 17.5713C210.473 19.1826 211.246 21.2293 211.246 23.7114C211.246 26.1854 210.473 28.2362 208.927 29.8638C207.389 31.4832 205.342 32.293 202.787 32.293ZM202.787 30.9258C204.764 30.9258 206.253 30.1608 207.254 28.6309C208.264 27.1009 208.768 25.4611 208.768 23.7114C208.768 21.9618 208.264 20.326 207.254 18.8042C206.253 17.2743 204.764 16.5093 202.787 16.5093C200.809 16.5093 199.316 17.2743 198.307 18.8042C197.306 20.326 196.805 21.9618 196.805 23.7114C196.805 25.4611 197.306 27.1009 198.307 28.6309C199.316 30.1608 200.809 30.9258 202.787 30.9258ZM219.999 32H214.31C213.488 32 213.077 31.7721 213.077 31.3164V16.1187C213.077 15.6629 213.488 15.4351 214.31 15.4351H219.999C222.456 15.4351 224.369 16.2489 225.736 17.8765C227.103 19.5041 227.787 21.4694 227.787 23.7725C227.787 26.0755 227.103 28.0246 225.736 29.6196C224.369 31.2065 222.456 32 219.999 32ZM219.999 30.6328C221.83 30.6328 223.172 29.876 224.027 28.3623C224.889 26.8405 225.321 25.3065 225.321 23.7603C225.321 22.2303 224.889 20.6882 224.027 19.1338C223.164 17.5794 221.821 16.8022 219.999 16.8022H215.555V30.6328H219.999Z" fill="white"/>
</svg>
